<?xml version="1.0" encoding="UTF-8"?>
<svg id="b" xmlns="http://www.w3.org/2000/svg" xmlns:xlink="http://www.w3.org/1999/xlink" version="1.1" viewBox="0 0 848 735.3">
  <!-- Generator: Adobe Illustrator 29.4.0, SVG Export Plug-In . SVG Version: 2.1.0 Build 152)  -->
  <defs>
    <style>
      .st0, .st1, .st2, .st3, .st4, .st5 {
        fill: none;
      }

      .st6 {
        fill: #f7c1bb;
      }

      .st7 {
        fill: #00122e;
      }

      .st8 {
        fill: #052250;
      }

      .st9 {
        clip-path: url(#clippath-1);
      }

      .st10 {
        clip-path: url(#clippath-3);
      }

      .st11 {
        clip-path: url(#clippath-4);
      }

      .st12 {
        clip-path: url(#clippath-2);
      }

      .st13 {
        clip-path: url(#clippath-5);
      }

      .st1 {
        stroke-width: 3.7px;
      }

      .st1, .st2, .st3, .st4, .st5 {
        stroke-miterlimit: 10;
      }

      .st1, .st2, .st4 {
        stroke: #d69592;
      }

      .st14 {
        fill: #0d48a7;
      }

      .st15 {
        isolation: isolate;
        opacity: .4;
      }

      .st15, .st16 {
        fill: #d69592;
      }

      .st2, .st5 {
        stroke-width: 2px;
      }

      .st3 {
        stroke: #052250;
        stroke-width: 2.2px;
      }

      .st17 {
        fill: #e6effe;
      }

      .st4 {
        stroke-width: 1.2px;
      }

      .st18 {
        fill: #92bcff;
      }

      .st19 {
        clip-path: url(#clippath);
      }

      .st5 {
        stroke: #00122e;
      }
    </style>
    <clipPath id="clippath">
      <path class="st0" d="M382,704.7c-5.1-52.7-24-119.2-33.7-171.4-4.2-22.4-23.4-38.9-46.2-39.3-31.5-.5-63,2.1-94,7.8-30.6,5.7-92.1,11.6-96.3,51.9-1.2,11.8,2.1,23.6,5.7,34.9,10.9,35,27.4,83.1,43.6,116h221.1,0Z"/>
    </clipPath>
    <clipPath id="clippath-1">
      <path class="st0" d="M238.3,464.3l-5,27.6c-1.9,10.2-8.2,19.1-17.2,24.3-7.8,4.4-17,5.7-25.8,3.6l-33.6-8.2c-8-2-15.1-6.7-20-13.3l-30.2-40.8c-17.1-30.1-6.6-68.5,23.6-85.6s65.3-6.2,82.4,23.9l23.7,48.6c2.6,6.3,3.4,13.2,2.2,20h0Z"/>
    </clipPath>
    <clipPath id="clippath-2">
      <path class="st0" d="M158,490.2c-1.3-1.9-2.7-3.6-4.2-5.3-3.5-3.9-7.4-7.5-11-11.3-8.3-8.8-10.3-17.3-12.2-28.8-.4-2.5-.7-4.1-3.1-5.2-5.6-2.5-16,0-19,5.4s-3.2,11.7-3.3,17.8c0,1.7,0,3.5.4,5.2.4,1.5-6.1,4.8-5.2,6.2,9.9,16.8,13.9,20.7,25.4,35.6,2.1,2.8-37.7,56.9-39.1,60.1-14.7,19.3-33.1,45-40.4,57.3-10.3,17.3-17.9,36.7-18.6,56.2-.3,8,.9,16.7,6.7,21.3,5.2,4.2,22.6,5.4,29.4,3.6,14.6-3.9,20.6-5,30.8-17.1,12-14.1,18.7-33.2,25.1-50.3,12-31.7,25.5-63.6,34.6-96.2,4.7-16.9,14.7-38.4,3.7-54.5h0Z"/>
    </clipPath>
    <clipPath id="clippath-3">
      <path class="st0" d="M107.9,421.9l-12.6,17.6c-1.3,1.8-1.7,4.4-1,6.6l5.8,22.8c3.3,11.4,20,6.7,16.8-4.8l-6.1-19.2c3.2-5.3,9.2-15.1,9.2-15.1,4.6-8-6.6-15.4-12.1-8h0Z"/>
    </clipPath>
    <clipPath id="clippath-4">
      <path class="st0" d="M105.3,418.1l-10.7,24.8c-1.2,2.8-1.5,6-.7,8.9,1.9,7,5.2,19.6,5.4,20.3,2.8,9.1,17.5,4.9,14.9-4.2l-6.7-20.6c2.5-6.7,8.6-24.8,8.6-24.8,2.4-7.1-7.8-11.1-10.8-4.3h0Z"/>
    </clipPath>
    <clipPath id="clippath-5">
      <path class="st0" d="M116.7,419.4l-11.4,20.9-1.1,2.1c.1.7,2.9,22.6,3.1,24.2,1.9,11.8,19.2,9,17.3-2.8l-3.7-18.9c2.6-5.7,8.8-19,8.8-19,3.7-8.5-8.4-14.6-13-6.5h0Z"/>
    </clipPath>
  </defs>
  <path class="st14" d="M382,704.7c-5.1-52.7-24-119.2-33.7-171.4-4.2-22.4-23.4-38.9-46.2-39.3-31.5-.5-63,2.1-94,7.8-30.6,5.7-92.1,11.6-96.3,51.9-1.2,11.8,2.1,23.6,5.7,34.9,10.9,35,27.4,83.1,43.6,116h221.1,0Z"/>
  <g class="st19">
    <g>
      <path class="st8" d="M163.2,648c2.2,4.3,4.4,8.5,6.6,12.8,10,19.6,38,61.3,38,61.3-10.4,5.3-32.3.7-43.6-.2-8.8-.8-18-2.2-25.1-7.5-5.6-4.2-9.4-10.5-12.9-16.5-3.2-5.5-6.5-11.1-7.8-17.4-2.1-9.9,1.1-20.1,4.4-29.7,3.8-11,8.1-22.3,16.3-30.6,8.9-9.1,12.2,4.3,15.7,11.1,2.9,5.6,5.7,11.2,8.6,16.7h0Z"/>
      <line class="st3" x1="329.1" y1="614" x2="316.1" y2="584.6"/>
    </g>
  </g>
  <path class="st18" d="M606.4,692.9h-295.6l36.3-170.8c1.6-7.5,8.2-12.8,15.8-12.8h262.6c10.3,0,17.9,9.5,15.8,19.5l-34.9,164.2h0Z"/>
  <path class="st18" d="M226.2,692.9h380.2c0,7.1-5.8,12.9-12.9,12.9H239.1c-7.1,0-12.9-5.8-12.9-12.9h0Z"/>
  <path class="st14" d="M162.3,515.4c-26.4,4.1-45.8,1.7-64.9,20.5-10.1,10-19.2,17.6-25.4,30.3-10.7,21.5-21.6,51.4-32.2,72.9-5.9,12-15.5,46.7-9.7,58.8,6.4,13.2,49.4,11.9,63.4,7.5,14.4-4.5,3.9-23.9,16.2-32.6,26.7-19.1,54.2-67.9,81.4-102.5"/>
  <path class="st6" d="M209.6,547.7h0c-19.7,11-44.6,3.3-54.6-16.9l-27.6-55.6,63.6-35.5,32.8,52.7c11.9,19.1,5.4,44.4-14.3,55.3h0Z"/>
  <path class="st16" d="M228.8,522.1c-5.6,1.2-11.2,2-16.9,2.3-8.7.4-17.4-.2-26-1.9-4.3-.9-20.9-3.6-13.4-10.5,7.6-7,18.6-12.3,27.6-17.4,1.6-.9,11.1-6.5,18.7-10.5l5.1,8.2c5.8,9.3,7.2,20,5,29.8h0Z"/>
  <path class="st7" d="M204.2,373.4c10.8,13.9,16.2,34.1,22,50.8-7.1-9.6-14.6-21.6-23.6-29.4-4.2-3.6-8.6-7-13.2-10.2-4-2.8-10.9-5.5-13.7-9.7-3.9-5.9,1.1-10.6,7-12.1,9.2-2.4,16.1,4,21.4,10.8h0Z"/>
  <path class="st6" d="M238.3,464.3l-5,27.6c-1.9,10.2-8.2,19.1-17.2,24.3h0c-7.8,4.4-17,5.7-25.8,3.6l-33.6-8.2c-8-2-15.1-6.7-20-13.3l-30.2-40.8c-17.1-30.1-6.6-68.5,23.6-85.6h0c30.1-17.1,65.3-6.2,82.4,23.9l23.7,48.6c2.6,6.3,3.4,13.2,2.2,20h0Z"/>
  <g class="st9">
    <path class="st16" d="M137.6,461.4c3.9,5.5,9.3,9.8,13.9,14.7,5,5.3,9.2,11.5,11.3,18.4s2.1,14.7-1,21.3c-1,2.2-3,4.5-5.3,3.9-1.5-.3-2.5-1.8-3.4-3.1-3.9-6.1-7.9-12.2-11.8-18.3-9.8-15.3-19.8-30.8-25-48.3-1.3-4.2-2.2-8.7-1.7-13,1.3-9.9,17.1-15.5,21.4-7.1,2.6,5-1.6,10.1-2.7,14.7-1.4,5.8.9,12,4.2,16.7h0Z"/>
  </g>
  <path class="st7" d="M229.7,431.3c3.6,11,6.8,29.1-5.3,28.5-3.9-.2-8.5-1.6-12.4-1.2-9.1.8-15.9,2.8-21.5,10.1-7,9.1-20.3,16.7-29.3,15-7.8-1.5-13.6-7.8-19.7-12.8-6.2-5-20.5-7.1-27.3-3,0,0,12.4,28.7,34,41.2s57.9,19.2,70,7.8c12.1-11.5,16.1-18.3,17.6-27.2s6.1-31,5.4-34.8-11.5-23.5-11.5-23.5h0Z"/>
  <path class="st7" d="M116.8,396.4c1.3,3.1.4,6.7-1.1,9.8s-3.6,5.7-5.1,8.8c-4.2,9.1-1.3,20,3.3,28.8s11.1,16.9,14.6,26.3c-4.9-2.3-11.3-.4-14.3,4.1-3.3-8.7-9.9-15.8-15.6-23.1s-11.1-15.7-11.4-25c-.2-7.3,2.7-14.2,5.5-21,1.1-2.6,2.2-5.3,4.2-7.3,2-2,5-3.2,7.7-2.3"/>
  <path class="st6" d="M123,466.4c-3.6-3.4-8.5-6.5-11.7-3.2-3.4,3.4-.7,9.1,1.8,13.6,3.4,6.1,8.2,11.8,13.7,15.8,4.7,3.5,13.7,6.5,13.3-1.8l-17.1-24.4Z"/>
  <path class="st15" d="M188.6,414.5c2.4,5.2,5,10.3,7.6,15.4.3.5.6,1,1.1,1.2.8.2,1.5-.5,2.1-1.1,3.7-4,9.1-6.5,14.6-6.5.9,0,2,0,2.4-.9.3-.5,0-1.2-.1-1.8-1.3-3.8-2.7-7.6-4-11.5-.4-1.3-1-2.7-2.1-3.3-1.1-.7-2.6-.5-3.9-.1-6.3,1.4-12.1,4.2-17.9,7l.2,1.6h0Z"/>
  <path class="st7" d="M189,415c.5.3,1.1.2,1.7,0,7.1-1.5,13.6-4.7,20.1-8.1.9-.5,1-1.8.1-2.3-.3-.2-.6-.3-.9-.4-1-.3-2-.3-3.1-.3-5.3.2-10.6,1.2-15.6,3-1.5.5-4.5,1.1-4.8,3-.2,1.4,1.4,4.4,2.5,5h0Z"/>
  <circle class="st7" cx="208.4" cy="428.7" r="4.9"/>
  <path class="st15" d="M169.9,445.3c-1.5-4.7-4.4-9.7-7-13.9-.5-.9-1.6-2.5-2.4-3.1-3.9-3-6.9.8-8.7,3.9-1.3,2.3-9.1,10.7-8.4,11.6,1.5,2.2,4.1,6.5,6.2,9.7,1.1,1.7,3.3,2.1,4.9,1,2.5-6.1,8.9-8.1,15.4-9.3h0Z"/>
  <path class="st7" d="M160.9,428.1c0,.6-.3,1.1-.7,1.5-4.4,5.7-10.2,10.2-16,14.5-.8.6-2,.1-2.1-.9,0-.3,0-.7,0-1,.1-1,.6-2,1.1-2.9,2.5-4.7,5.7-9,9.5-12.8,1.2-1.1,3-3.6,4.8-3,1.3.4,3.4,3.1,3.4,4.5h0Z"/>
  <path class="st6" d="M213.9,429c.9.3,1.3,1.4,1.1,2.2s-.9,1.6-1.6,2.2c-1.4,1.1-3.2,1.8-5,2-1,0-4.6.1-4.9-1.2-.2-.8,4-1.7,4.9-2.1,2-.8,3.9-1.9,5.6-3.1h0Z"/>
  <path class="st1" d="M190.5,466.1c4.5-.2,8.6-2.2,11.7-5.4.9-.9,1.6-2,1.9-3.1"/>
  <path class="st5" d="M199.2,430.8c.4-.4.9-.8,1.3-1.2,1.6-1.6,3.3-3.2,5.4-4.3,2.4-1.2,5.1-1.6,7.7-1.9.9-.1,1.8-.2,2.7-.3"/>
  <path class="st2" d="M191.9,485.6c7.4-6.7,13.5-9,18.9-8.4"/>
  <path class="st4" d="M201.1,487.5c1.8-1,3.7-1.9,5.7-2.5"/>
  <path class="st7" d="M119.6,399.7c11.5-.4,52.8-17.4,59.1-28.9,6.2-11.5,6.6-20,6.6-20l-7.8,7.2-6.8-10.9s-39,9.7-61.1,33,10,19.5,10,19.5h0Z"/>
  <circle class="st7" cx="162.9" cy="451.6" r="4.9"/>
  <path class="st6" d="M159.2,456.3c-.3.9.3,1.9,1.2,2.2.8.4,1.8.2,2.7,0,1.8-.5,3.3-1.6,4.5-3,.6-.8,2.8-3.7,1.9-4.7-.6-.6-3.7,2.3-4.5,2.8-1.8,1.1-3.8,2-5.8,2.7h0Z"/>
  <path class="st5" d="M169.9,445.3l-1.8.3c-2.3.4-4.6.8-6.6,1.9-2.4,1.2-4.2,3.2-6,5.2-.6.7-1.2,1.3-1.8,2"/>
  <path class="st6" d="M158,490.2c-1.3-1.9-2.7-3.6-4.2-5.3-3.5-3.9-7.4-7.5-11-11.3-8.3-8.8-10.3-17.3-12.2-28.8-.4-2.5-.7-4.1-3.1-5.2-5.6-2.5-16,0-19,5.4s-3.2,11.7-3.3,17.8c0,1.7,0,3.5.4,5.2.4,1.5-6.1,4.8-5.2,6.2,9.9,16.8,13.9,20.7,25.4,35.6,2.1,2.8-37.7,56.9-39.1,60.1-14.7,19.3-33.1,45-40.4,57.3-10.3,17.3-17.9,36.7-18.6,56.2-.3,8,.9,16.7,6.7,21.3,5.2,4.2,22.6,5.4,29.4,3.6,14.6-3.9,20.6-5,30.8-17.1,12-14.1,18.7-33.2,25.1-50.3,12-31.7,25.5-63.6,34.6-96.2,4.7-16.9,14.7-38.4,3.7-54.5h0Z"/>
  <g class="st12">
    <path class="st16" d="M158.3,490.7c3.4,7,2.4,15.4-.4,22.6-2.7,7.3-6.9,13.9-9.9,21-3,7.1-4.8,14.7-6.7,22.2-9.9,38.5-23.9,76.2-44.9,110-6.1,9.9-13.8,21.7-24.5,26.3s-28.4,14.8-33,4.1c-2.4-5.7-5.7-36.6-10.6-40.5-7-5.5-10.7-11.4-17.5-5.8-9.1,7.5-16.1,17.9-18.5,29.5s.3,24.3,8,33.3c9.4,10.9,24.3,14.9,38.5,17.5,26.7,4.9,54.4,6.6,80.8.3,26.4-6.3,51.4-21.4,65.5-44.6,12-19.7,15.4-43.4,16.3-66.4,2.2-54-7.8-108.4-28.8-158.2-1.5-3.6-3.3-7.5-6.5-9.7-3.2-2.3-8.4-2.3-10.6.9-.4,4.9-.9,9.8-1.3,14.7l4.2,22.7h0Z"/>
  </g>
  <path class="st6" d="M107.9,421.9l-12.6,17.6c-1.3,1.8-1.7,4.4-1,6.6l5.8,22.8c3.3,11.4,20,6.7,16.8-4.8l-6.1-19.2c3.2-5.3,9.2-15.1,9.2-15.1,4.6-8-6.6-15.4-12.1-8h0Z"/>
  <g class="st10">
    <rect class="st16" x="68.1" y="410.2" width="53.8" height="72.9"/>
  </g>
  <path class="st6" d="M105.3,418.1l-10.7,24.8c-1.2,2.8-1.5,6-.7,8.9,1.9,7,5.2,19.6,5.4,20.3,2.8,9.1,17.5,4.9,14.9-4.2l-6.7-20.6c2.5-6.7,8.6-24.8,8.6-24.8,2.4-7.1-7.8-11.1-10.8-4.3h0Z"/>
  <g class="st11">
    <path class="st16" d="M104.5,435.3c-1.4,2.6-3.1,5.3-3.5,8.3-.7,4.3,1,8.6,2.7,12.6,2.2,5.5,4.6,11,8.6,15.3.2-10,1.2-19.9,3-29.7.4-2.3.9-4.6,1.5-6.8,1-4,2.1-8,3.3-12,.6-2,1.1-4,1.7-6,.3-1,.5-2,.8-3,.2-.8.5-1.5-.6-1.5-3.2-.3-6.5.5-9.3,2.1.6-.3,1.4,2,1.5,2.3.2,1,0,2.2-.5,3.1-.9,2.3-2.8,4.4-4.1,6.5-1.8,2.8-3.4,5.6-4.9,8.5,0,0,0,.1-.1.2h0Z"/>
  </g>
  <path class="st6" d="M116.7,419.4l-11.4,20.9-1.1,2.1c.1.7,2.9,22.6,3.1,24.2,1.9,11.8,19.2,9,17.3-2.8l-3.7-18.9c2.6-5.7,8.8-19,8.8-19,3.7-8.5-8.4-14.6-13-6.5h0Z"/>
  <g class="st13">
    <path class="st16" d="M118,436.9c-1.4,2.2-2.7,4.4-3.3,6.9-.9,4,.3,8.1,1.6,12,1.6,5.2,3.3,10.5,5,15.8,3-4.3,4.1-9.6,4.4-14.8.3-5.2,0-10.5.4-15.7.3-2.5.7-5.1,1.3-7.6.3-1.2.5-2.4.9-3.5.2-.9,3-4.3,3.3-5.2.6-2,.4-5,0-7s-3.3-.1-4.4-2c1,1.8,2,3.7,1.8,5.7-.3,2.3-2.1,4-3.7,5.6-2.9,3-5,6.3-7.1,9.8h0Z"/>
  </g>
  <path class="st6" d="M130,449.2l2.8-10.1,2.2-2.4c2-2.2,2-5.6,0-7.8-2.2-2.4-5.9-2.6-8.2-.4-.7.6-4,3.6-4.6,4.2,0,.1-5,14.1-5.3,14.9l-.6,1.8c.3.9,4.7,15.8,5.2,17.3,3.1,9,16.2,4.7,13.3-4.4l-4.7-13h0Z"/>
  <path class="st2" d="M204.8,433.3c2.7-.9,11.4-4.8,13.9-6.1"/>
  <path class="st2" d="M168.7,451.3c-4.1,2.2-9,4.9-13.1,7.1"/>
  <path class="st17" d="M505.5,609.7c-1.3,10-11.6,18.2-23,18.2s-19.6-8.1-18.3-18.2,11.6-18.2,23-18.2,19.6,8.1,18.3,18.2Z"/>
  <path class="st18" d="M780.6,148.4c-4.8,0-9.4.7-13.8,2-7.6-34.8-38.6-60.9-75.7-60.9s-30.7,4.8-43,13c-8-7.5-18.8-12.1-30.7-12.1s-10,.9-14.5,2.4c-10.4-41.9-48.3-72.9-93.3-72.9s-82.2,30.4-93,71.7c-8.5-3.5-17.8-5.4-27.5-5.4-40,0-72.4,32.4-72.4,72.4s12.1,45.9,30.5,59.1c-.7,4.5-1.1,9-1.1,13.7,0,47.4,38.4,85.9,85.9,85.9s44.1-9.2,59.6-24.1c3.7,1.5,7.8,2.3,12,2.3,9.2,0,17.5-3.8,23.4-9.9,17.2,15.3,39.9,24.5,64.8,24.5s41.5-7,57.7-18.8c9.2,4.7,19.6,7.4,30.6,7.4,24.2,0,45.5-12.8,57.3-32,3.4,1.2,7,1.8,10.8,1.8,15,0,27.6-10.1,31.4-23.9.4,0,.8,0,1.2,0,26.5,0,48-21.5,48-48s-21.5-48-48-48Z"/>
  <circle class="st18" cx="198.2" cy="303.5" r="11.8"/>
  <circle class="st18" cx="226.2" cy="249.9" r="19.6"/>
  <circle class="st18" cx="279.8" cy="200.8" r="23.4"/>
  <g>
    <path class="st7" d="M447.4,215.6l-46.3-27.1v-5.2l46-24.2v7.7l-37.7,19.2,38,21.3v8.3Z"/>
    <path class="st7" d="M459.5,148.4h8.6v.8c-.4.4-.7.9-.8,1.4-.1.5-.2,1.4-.2,2.6v26.7c1.3-2,2.8-3.8,4.6-5.3,1.8-1.5,3.7-2.6,5.6-3.5,2-.8,4-1.2,6-1.2,3,0,5.6.7,7.9,2.1,2.3,1.4,4.1,3.6,5.3,6.6,1.3,3,1.9,7,1.9,12v30h-7.6v-29.8c0-3.5-.4-6.2-1.2-8.3-.8-2.1-1.9-3.5-3.3-4.4-1.4-.9-2.9-1.4-4.7-1.4s-2.6.2-4,.6c-1.4.4-2.7,1.1-4,2-1.3.9-2.4,1.9-3.4,3.2-1,1.3-1.8,2.7-2.4,4.3-.6,1.6-.9,3.4-.9,5.3v28.5h-7.6v-72.2Z"/>
    <path class="st7" d="M513.5,171h35.7v6.4h-35.7v-6.4ZM530.6,219.9c-2-1.1-3.6-2.8-4.7-5.1-1.1-2.3-1.8-5.2-2.1-8.7-.3-3.5-.4-7.6-.3-12.4l1.3-35.5,8.1-1h1.1c0-.1.1.7.1.7-.4.5-.7,1-.9,1.5-.3.5-.5,1.4-.6,2.6l-1,12.3.3,2-.8,18c-.2,5.5,0,9.8.4,12.8.5,3,1.4,5.1,2.7,6.2,1.3,1.1,3,1.7,5.2,1.7s4.5-.5,6.4-1.4c1.8-.9,3.8-2.1,5.8-3.6l2.4,6.2c-2.5,1.8-5,3.2-7.6,4-2.6.9-5.3,1.3-8.1,1.3s-5.8-.5-7.8-1.6Z"/>
    <path class="st7" d="M564.4,220.7v-49.6h7.2v5c.8-1.2,1.7-2.3,2.8-3.2,1-.9,2.2-1.6,3.5-2.1,1.3-.5,2.6-.8,3.9-.8s2.8.3,4,.9c1.2.6,2.3,1.5,3.1,2.6.8,1.1,1.4,2.4,1.7,3.8.7-1.4,1.5-2.7,2.7-3.8,1.1-1.1,2.4-1.9,3.9-2.6,1.5-.6,3-.9,4.6-.9s3.1.3,4.3,1c1.2.7,2.2,1.5,3,2.7.8,1.1,1.4,2.5,1.7,4,.4,1.6.5,3.2.4,5v38.1h-7.2v-35.1c0-3-.2-5.2-.6-6.6-.4-1.4-1-2.3-1.7-2.7-.7-.4-1.5-.6-2.4-.6-1.4,0-2.7.6-3.9,1.9-1.2,1.3-2.2,2.8-2.9,4.7-.8,1.9-1.1,3.8-1.1,5.6v32.7h-7.3v-34.5c0-4.1-.4-6.9-1.1-8.2-.8-1.4-2.2-2.1-4.3-2.1s-1.6.3-2.4.8c-.8.5-1.6,1.3-2.3,2.3-.7,1-1.3,2.2-1.7,3.6-.4,1.4-.7,3.1-.7,5v33.1h-7.2Z"/>
    <path class="st7" d="M623.1,220.7v-6.3h14.7v-59.6h-14v-6.3h21.9v65.9h14.6v6.3h-37.2Z"/>
    <path class="st7" d="M673.2,215.6v-8.3l37.9-21.3-37.7-19.2v-7.7l46.1,24.2v5.2l-46.3,27.1Z"/>
  </g>
</svg>